<?xml version="1.0" encoding="UTF-8"?>
<svg version="1.1" xmlns="http://www.w3.org/2000/svg" width="1024" height="1024">
<path d="M0 0 C337.92 0 675.84 0 1024 0 C1024 337.92 1024 675.84 1024 1024 C686.08 1024 348.16 1024 0 1024 C0 686.08 0 348.16 0 0 Z " fill="#F9ECD8" transform="translate(0,0)"/>
<path d="M0 0 C3.70042201 3.44672877 6.58135371 7.31785303 9.5625 11.375 C14.80649309 18.4393883 20.17877584 25.38595178 25.64111328 32.28222656 C27.9351215 35.18209035 30.21677255 38.09164648 32.5 41 C33.41925628 42.16928228 34.3385271 43.33855312 35.2578125 44.5078125 C37.06874175 46.81228102 38.87574563 49.11974587 40.6796875 51.4296875 C41.57786453 52.57832872 42.47630371 53.726765 43.375 54.875 C43.82576904 55.45096924 44.27653809 56.02693848 44.7409668 56.62036133 C47.67789714 60.35803785 50.67040453 64.04495264 53.69116211 67.71508789 C59.25702264 74.48614454 64.60894171 81.38334546 69.8125 88.4375 C70.42971924 89.2730542 71.04693848 90.1086084 71.68286133 90.96948242 C76 96.8691409 76 96.8691409 76 98 C60.82 98 45.64 98 30 98 C30.06058594 104.52652344 30.12117187 111.05304688 30.18359375 117.77734375 C30.2693333 127.16405268 30.35374226 136.55077319 30.4375 145.9375 C30.45403185 147.78986959 30.45403185 147.78986959 30.47089767 149.6796608 C30.90685554 198.68181205 31.24836346 247.6844313 31.5625 296.6875 C31.56804948 297.55269178 31.57359897 298.41788356 31.57931662 299.30929327 C31.72185903 321.5395144 31.86216113 343.7697492 32 366 C34.55885142 364.57138822 37.11643227 363.14057952 39.67333984 361.70849609 C40.39267197 361.30718979 41.11200409 360.90588348 41.85313416 360.49241638 C47.2877023 357.44530877 52.51797273 354.1975672 57.625 350.625 C58.41640381 350.07682617 59.20780762 349.52865234 60.02319336 348.96386719 C70.01734624 341.97754568 79.56161285 334.54309213 88.5234375 326.265625 C90.54343822 324.41767481 92.59271481 322.62825533 94.66796875 320.84375 C106.72816544 310.31429222 118.28772523 298.74021926 128 286 C128.86926727 284.92844404 129.7418878 283.8596028 130.6171875 282.79296875 C139.52427926 271.85871363 147.81593622 260.19579872 153 247 C155.31 247.33 157.62 247.66 160 248 C160.02187378 249.11858398 160.02187378 249.11858398 160.04418945 250.25976562 C160.11915338 253.6736704 160.21565438 257.08664869 160.3125 260.5 C160.33505859 261.67304688 160.35761719 262.84609375 160.38085938 264.0546875 C160.67671465 274.85334799 160.67671465 274.85334799 165.82421875 284.09375 C166.74654297 284.78984375 166.74654297 284.78984375 167.6875 285.5 C168.62142578 286.22703125 168.62142578 286.22703125 169.57421875 286.96875 C170.04472656 287.3090625 170.51523437 287.649375 171 288 C166.1905684 301.25470144 152.71683542 313.23415551 143.2578125 323.5234375 C141.3373142 325.63000484 139.47318193 327.76789513 137.625 329.9375 C130.39992286 338.23865246 122.40677429 345.91013388 114 353 C112.67548828 354.15822266 112.67548828 354.15822266 111.32421875 355.33984375 C97.12367358 367.68612587 81.8993551 378.93879277 66 389 C65.43104004 389.36222656 64.86208008 389.72445313 64.27587891 390.09765625 C11.08767627 423.69971351 11.08767627 423.69971351 -6 420 C-8.84509773 419.04449226 -11.53430792 417.83588233 -14.25 416.5625 C-15.41716553 416.02580688 -15.41716553 416.02580688 -16.60791016 415.47827148 C-19.07865347 414.33263746 -21.53944256 413.16732515 -24 412 C-24.76860352 411.64292969 -25.53720703 411.28585937 -26.32910156 410.91796875 C-47.7331775 400.93726356 -68.33955194 388.47712343 -87 374 C-89.04086544 372.49891005 -91.08251136 370.99888056 -93.125 369.5 C-103.76501243 361.48082062 -113.62572209 352.62733487 -123.34863281 343.53369141 C-125.04146116 341.96149334 -126.74879015 340.40659158 -128.4609375 338.85546875 C-133.63977203 334.15392244 -138.71765386 329.48022223 -143.2109375 324.1015625 C-145.02710135 321.96816479 -146.92444095 319.92461685 -148.84082031 317.88134766 C-154.8816803 311.42394882 -160.3581439 304.62261154 -165.73339844 297.60644531 C-167.05218081 295.93381848 -168.42982946 294.32421051 -169.8203125 292.7109375 C-172 290 -172 290 -172 288 C-171.278125 287.62875 -170.55625 287.2575 -169.8125 286.875 C-165.82600236 284.21733491 -163.79006271 281.45448488 -162 277 C-161.26531897 271.99953421 -161.20974957 267.04818025 -161.1875 262 C-161.16431886 260.63928348 -161.13894608 259.27860245 -161.11132812 257.91796875 C-161.05270607 254.61168509 -161.01624062 251.30671818 -161 248 C-159.02 247.67 -157.04 247.34 -155 247 C-151.97357475 251.44304983 -149.03943415 255.89181037 -146.375 260.5625 C-136.62843189 276.91648181 -123.49136724 291.14261489 -110.625 305.0625 C-110.06635254 305.669729 -109.50770508 306.27695801 -108.93212891 306.90258789 C-105.67888525 310.38254347 -102.29053685 313.53760866 -98.63818359 316.59423828 C-96.29647156 318.60371338 -94.16131402 320.79958326 -92 323 C-73.916253 340.24331645 -52.3861963 355.80690185 -30 367 C-30 278.23 -30 189.46 -30 98 C-44.85 98 -59.7 98 -75 98 C-73.02 95.36 -71.04 92.72 -69 90 C-68.09121094 88.78441406 -67.18242187 87.56882812 -66.24609375 86.31640625 C-59.39322377 77.15296684 -52.47444748 68.04206026 -45.5078125 58.96484375 C-44.11860301 57.15455263 -42.7309808 55.3430575 -41.34375 53.53125 C-37.1614578 48.0750553 -32.94447448 42.64801133 -28.6875 37.25 C-22.90295244 29.91334973 -17.23739224 22.48758763 -11.57226562 15.05859375 C-9.11835741 11.84565057 -6.65374454 8.64097853 -4.1875 5.4375 C-3.54735962 4.60593384 -3.54735962 4.60593384 -2.89428711 3.75756836 C-1.9297344 2.50488411 -0.96490341 1.25241414 0 0 Z " fill="#1C303F" transform="translate(512,240)"/>
<path d="M0 0 C39.6686156 15.14522727 80.12829549 28.96440689 121.3125 39.375 C122.44300781 39.66181641 123.57351563 39.94863281 124.73828125 40.24414062 C134.01382093 42.59114874 143.30087817 44.89090325 152.58984375 47.18408203 C154.70320851 47.70627972 156.81633082 48.22945969 158.92919922 48.75366211 C160.82608089 49.22426487 162.72347488 49.69281192 164.62158203 50.15844727 C173.56924758 52.37857552 182.43718061 54.88452045 191.3125 57.375 C191.33589307 66.56487002 191.35355017 75.75472946 191.36431217 84.94462299 C191.36948298 89.21398804 191.37647214 93.4833324 191.38793945 97.75268555 C191.48303406 134.07095993 191.48303406 134.07095993 190.3125 149.375 C166.52372564 150.56888403 166.52372564 150.56888403 156.3125 150.375 C156.19203485 143.66910671 156.35255373 137.00656691 156.75 130.3125 C157.32977375 120.44369658 157.60316292 110.56854817 157.875 100.6875 C157.89714569 99.8829538 157.91929138 99.07840759 157.94210815 98.2494812 C158.06865437 93.62473317 158.19188399 88.99990631 158.3125 84.375 C157.66998291 84.26325439 157.02746582 84.15150879 156.36547852 84.03637695 C148.95213056 82.72090286 141.60046574 81.19074082 134.25 79.5625 C133.16267578 79.32724609 132.07535156 79.09199219 130.95507812 78.84960938 C122.06416091 76.88359692 113.32863777 74.4802488 104.56973267 72.00656128 C101.03548828 71.01769915 97.49028518 70.07061198 93.9453125 69.12109375 C68.48175457 62.25761515 43.58422394 54.09174625 18.734375 45.27734375 C16.76377988 44.58089797 14.79315825 43.8845272 12.82250977 43.18823242 C9.00532709 41.83907601 5.19437982 40.47397364 1.38647461 39.09887695 C-0.36328554 38.47693028 -2.11319683 37.85540863 -3.86328125 37.234375 C-4.65337585 36.94437119 -5.44347046 36.65436737 -6.25750732 36.35557556 C-12.90252005 34.02016334 -18.37710381 33.54610249 -25.08984375 36.10546875 C-26.12512207 36.48993164 -27.16040039 36.87439453 -28.22705078 37.27050781 C-29.34837402 37.69686523 -30.46969727 38.12322266 -31.625 38.5625 C-34.11931826 39.48317856 -36.61465333 40.39979391 -39.11328125 41.30859375 C-39.78172058 41.5520755 -40.45015991 41.79555725 -41.13885498 42.04641724 C-50.12325621 45.29157575 -59.2207953 48.19750241 -68.3125 51.125 C-69.14337128 51.39259125 -69.97424255 51.6601825 -70.83029175 51.93588257 C-71.64547272 52.19833771 -72.46065369 52.46079285 -73.30053711 52.73120117 C-74.1070874 52.99091202 -74.9136377 53.25062286 -75.74462891 53.51820374 C-77.35209141 54.03554997 -78.95975628 54.55226785 -80.56762695 55.06834412 C-85.31602317 56.59613623 -90.04879787 58.1643639 -94.77406311 59.76217651 C-102.74378922 62.45398068 -110.72996365 64.88262139 -118.875 67 C-119.99664551 67.29648438 -121.11829102 67.59296875 -122.27392578 67.8984375 C-124.46150114 68.47646697 -126.64962235 69.05243601 -128.83837891 69.62597656 C-131.12817562 70.22795568 -133.41494337 70.83844971 -135.69921875 71.4609375 C-144.00339255 73.71782097 -152.34420863 75.83059718 -160.6875 77.9375 C-161.83911621 78.23076172 -162.99073242 78.52402344 -164.17724609 78.82617188 C-172.65799368 80.95446599 -181.08829433 82.65515887 -189.6875 84.375 C-189.6875 105.825 -189.6875 127.275 -189.6875 149.375 C-201.00827736 150.00393208 -212.34926577 150.375 -223.6875 150.375 C-223.6875 119.685 -223.6875 88.995 -223.6875 57.375 C-218.4075 56.055 -213.1275 54.735 -207.6875 53.375 C-204.779375 52.446875 -204.779375 52.446875 -201.8125 51.5 C-196.94831679 49.96394215 -192.0885833 48.76336662 -187.10693359 47.6706543 C-144.90449388 38.37393402 -103.81914157 25.19629424 -62.89447021 11.44958496 C-58.0340705 9.82097226 -53.1676757 8.21064085 -48.30078125 6.6015625 C-39.2999286 3.62172173 -39.2999286 3.62172173 -30.3046875 0.625 C-29.13647461 0.23570312 -27.96826172 -0.15359375 -26.76464844 -0.5546875 C-24.17440577 -1.45564147 -21.66226569 -2.44497209 -19.1328125 -3.5 C-12.25883455 -5.74456423 -6.42362585 -2.51008165 0 0 Z " fill="#1C2F3E" transform="translate(527.6875,178.625)"/>
<path d="M0 0 C0.99837891 -0.01224609 1.99675781 -0.02449219 3.02539062 -0.03710938 C4.47655273 -0.04000977 4.47655273 -0.04000977 5.95703125 -0.04296875 C6.83979736 -0.04707764 7.72256348 -0.05118652 8.63208008 -0.05541992 C11.58479188 0.22526683 13.59742842 0.72447965 16.1875 2.1875 C18.83748648 6.82499421 18.44485513 11.64060382 18.3894043 16.81713867 C18.38598369 18.26941958 18.38598369 18.26941958 18.38249397 19.75103951 C18.37260787 22.97346549 18.34844347 26.19562111 18.32421875 29.41796875 C18.31408967 31.70346194 18.30488651 33.98895939 18.29655457 36.27445984 C18.27762617 41.10812139 18.25313838 45.941713 18.22503662 50.77532959 C18.1850781 58.01641101 18.17274532 65.25735665 18.16650391 72.49853516 C18.15577471 83.23102437 18.11785222 93.96309227 18.05537605 104.69540596 C18.02055946 110.78584412 17.99591217 116.87600966 17.99194336 122.96655273 C17.98767513 129.01669863 17.9594436 135.06628988 17.91406822 141.11626244 C17.90115697 143.38600634 17.89676271 145.65581643 17.90134621 147.92559242 C17.90622566 151.05429709 17.88032004 154.18131733 17.84692383 157.30981445 C17.85554947 158.22735001 17.86417511 159.14488556 17.87306213 160.09022522 C17.79598505 164.38430214 17.54941712 167.30589848 14.83378601 170.74235535 C10.37578398 174.86150943 6.11764433 174.43114335 0.375 174.5 C-0.41970703 174.52900391 -1.21441406 174.55800781 -2.03320312 174.58789062 C-7.43113061 174.64593286 -10.64658549 173.94242743 -14.8125 170.1875 C-17.32311255 165.9669609 -18.18402204 162.88798306 -18.15307617 157.99853516 C-18.15284958 156.79774323 -18.15262299 155.59695129 -18.15238953 154.35977173 C-18.12916374 152.43758316 -18.12916374 152.43758316 -18.10546875 150.4765625 C-18.09986685 149.13992796 -18.09559956 147.80328722 -18.09260559 146.46664429 C-18.08120334 142.96485096 -18.05177697 139.46343658 -18.01849365 135.96179199 C-17.98769235 132.38213221 -17.97407887 128.80241063 -17.95898438 125.22265625 C-17.92690204 118.21078278 -17.87576245 111.19915963 -17.8125 104.1875 C-19.11303314 104.18972061 -20.41356628 104.19194122 -21.75350952 104.19422913 C-34.08003105 104.21460401 -46.40654911 104.22954073 -58.73308372 104.23931217 C-65.06848229 104.24450481 -71.40386714 104.25153581 -77.73925781 104.26293945 C-83.86658486 104.27389809 -89.9938988 104.27980401 -96.12123489 104.28237724 C-98.44529043 104.28420832 -100.76934535 104.28778328 -103.09339523 104.29323006 C-116.38118946 104.32310044 -129.55182584 104.06930737 -142.8125 103.1875 C-142.8125 91.9675 -142.8125 80.7475 -142.8125 69.1875 C-101.2325 69.1875 -59.6525 69.1875 -16.8125 69.1875 C-16.8125 48.3975 -16.8125 27.6075 -16.8125 6.1875 C-11.16283924 -0.87457595 -8.47883672 0.00541087 0 0 Z " fill="#1B2F3E" transform="translate(701.8125,341.8125)"/>
<path d="M0 0 C1.09248047 -0.00644531 2.18496094 -0.01289063 3.31054688 -0.01953125 C4.44685547 -0.00019531 5.58316406 0.01914062 6.75390625 0.0390625 C7.88634766 0.01972656 9.01878906 0.00039063 10.18554688 -0.01953125 C19.42306308 0.03490314 19.42306308 0.03490314 22.5390625 3.078125 C25.24257874 7.01159259 25.43928187 8.99749519 25.42993164 13.76611328 C25.42985611 15.04729034 25.42978058 16.32846741 25.42970276 17.64846802 C25.42459573 19.05210407 25.41937973 20.45573973 25.4140625 21.859375 C25.41219771 23.29141185 25.41077409 24.72344934 25.40977478 26.15548706 C25.40595444 29.92679604 25.39612827 33.69806657 25.3850708 37.46936035 C25.3748463 41.31680786 25.37027493 45.16426157 25.36523438 49.01171875 C25.35450558 56.56251753 25.33743494 64.11328463 25.31640625 71.6640625 C26.29173813 71.619114 26.29173813 71.619114 27.28677368 71.57325745 C51.99420177 70.48551817 76.68846294 70.54380257 101.41473389 70.59539795 C106.94705819 70.60580616 112.47938738 70.61023223 118.01171875 70.61523438 C128.77996241 70.62581581 139.54817734 70.64333597 150.31640625 70.6640625 C150.31640625 81.8840625 150.31640625 93.1040625 150.31640625 104.6640625 C109.06640625 104.6640625 67.81640625 104.6640625 25.31640625 104.6640625 C25.47457429 125.12740954 25.47457429 125.12740954 25.67675781 145.59033203 C25.68844226 148.15917293 25.69863466 150.72802125 25.70703125 153.296875 C25.71748474 153.95879852 25.72793823 154.62072205 25.7387085 155.30270386 C25.92267406 167.57268864 25.92267406 167.57268864 23.47949219 171.43701172 C18.61926671 176.44095944 14.18789935 176.79648572 7.43359375 176.8984375 C6.73492187 176.90359375 6.03625 176.90875 5.31640625 176.9140625 C4.26839844 176.945 4.26839844 176.945 3.19921875 176.9765625 C-1.29030683 177.01044571 -4.1777288 176.52546698 -7.68359375 173.6640625 C-9.98843492 170.17136299 -9.93950572 167.11009254 -9.95101929 162.99061584 C-9.9555504 162.32102339 -9.96008151 161.65143093 -9.96474993 160.96154779 C-9.97740437 158.71916797 -9.97577293 156.4770307 -9.97412109 154.23461914 C-9.98010564 152.62639554 -9.98691102 151.01817482 -9.99447632 149.40995789 C-10.01214952 145.04221438 -10.01683221 140.67454923 -10.01810789 136.30677342 C-10.02000691 132.66105904 -10.02736434 129.01536291 -10.03445208 125.36965555 C-10.0507381 116.76929546 -10.05562078 108.16897725 -10.05419922 99.56860352 C-10.05299721 90.69464041 -10.07411032 81.82092029 -10.10568655 72.94701868 C-10.13182842 65.3290769 -10.14256742 57.71121459 -10.1412884 50.09322828 C-10.14077822 45.54292633 -10.14649255 40.99284038 -10.1676445 36.44258308 C-10.18699219 32.16367408 -10.18717535 27.88518793 -10.17261124 23.60626411 C-10.17051782 22.03611128 -10.17525577 20.46593222 -10.18733215 18.89582443 C-10.20275632 16.75154886 -10.19349755 14.60873657 -10.17807007 12.4644928 C-10.1791596 11.26490464 -10.18024914 10.06531649 -10.18137169 8.82937717 C-9.1997967 2.58765077 -6.15743416 0.03491457 0 0 Z " fill="#1D2F3E" transform="translate(313.68359375,340.3359375)"/>
<path d="M0 0 C7.92 0 15.84 0 24 0 C24.495 18.315 24.495 18.315 25 37 C28.3 34.69 31.6 32.38 35 30 C43.34787353 26.20836861 55.32644504 26.72740676 64 29.5 C73.97140182 33.81236649 80.87882031 42.04783963 85.25390625 51.79296875 C90.22155045 65.44966309 89.80334415 82.18395909 83.8984375 95.48046875 C82.71526986 97.75902063 81.43404919 99.87152584 80 102 C79.58105469 102.62648438 79.16210938 103.25296875 78.73046875 103.8984375 C73.22455627 111.16560729 64.69182068 114.94215273 56 117 C46.09303339 117.91220463 37.93402602 117.53063439 29.90234375 111.3984375 C28.22043609 109.98737382 26.60271108 108.50041037 25 107 C24.67 109.97 24.34 112.94 24 116 C16.08 116 8.16 116 0 116 C0 77.72 0 39.44 0 0 Z " fill="#1C2F3D" transform="translate(712,706)"/>
<path d="M0 0 C9.57 0 19.14 0 29 0 C30.60875 4.0425 32.2175 8.085 33.875 12.25 C38.72012747 24.39090041 43.64683291 36.49711245 48.60803223 48.59100342 C54.80293953 63.69353184 60.97253817 78.8058062 67.05285645 93.95489502 C67.76447751 95.72714179 68.47727654 97.49891603 69.19128418 99.27020264 C70.17530372 101.71259882 71.15477203 104.15676702 72.1328125 106.6015625 C72.42562103 107.3264386 72.71842957 108.0513147 73.02011108 108.79815674 C75 113.77074228 75 113.77074228 75 116 C65.76 116 56.52 116 47 116 C44.03 108.41 41.06 100.82 38 93 C22.16 92.67 6.32 92.34 -10 92 C-10.33 93.98 -10.66 95.96 -11 98 C-11.49399097 99.52456109 -12.03557751 101.03472174 -12.62890625 102.5234375 C-12.91064697 103.23935059 -13.1923877 103.95526367 -13.48266602 104.69287109 C-13.83901123 105.57797363 -14.19535645 106.46307617 -14.5625 107.375 C-15.696875 110.22125 -16.83125 113.0675 -18 116 C-27.24 116 -36.48 116 -46 116 C-43.43940348 108.31821044 -40.68000576 100.79116237 -37.75 93.25 C-37.49322479 92.58749237 -37.23644958 91.92498474 -36.97189331 91.24240112 C-30.78577458 75.29550566 -24.3411409 59.45421851 -17.88134766 43.61669922 C-16.00236225 39.00852256 -14.13120122 34.39719487 -12.26171875 29.78515625 C-11.66399592 28.31111054 -11.06625857 26.83707071 -10.46850586 25.36303711 C-9.62011194 23.27091562 -8.77178911 21.17876567 -7.92385864 19.0864563 C-7.15304276 17.18496549 -6.38132393 15.28384356 -5.609375 13.3828125 C-5.17592773 12.31434082 -4.74248047 11.24586914 -4.29589844 10.14501953 C-2.89682555 6.74960563 -1.44661415 3.37543301 0 0 Z " fill="#1C2F3E" transform="translate(481,706)"/>
<path d="M0 0 C6.46764067 7.2022369 8.27692164 14.33467955 8.25805664 23.88037109 C8.25798111 25.16124603 8.25790558 26.44212097 8.25782776 27.7618103 C8.2527223 29.14459269 8.24750633 30.52737467 8.2421875 31.91015625 C8.24032042 33.33647614 8.23889789 34.76279667 8.23789978 36.18911743 C8.2340974 39.92748817 8.22428677 43.66581953 8.2131958 47.4041748 C8.20293249 51.22517362 8.19839165 55.04617885 8.19335938 58.8671875 C8.18266228 66.35288454 8.16508414 73.83854109 8.14453125 81.32421875 C-0.10546875 81.32421875 -8.35546875 81.32421875 -16.85546875 81.32421875 C-16.88125 77.30234375 -16.90703125 73.28046875 -16.93359375 69.13671875 C-16.96531133 65.91209834 -17.00096377 62.68757436 -17.03926086 59.46302795 C-17.07849984 56.06891928 -17.11094601 52.67506877 -17.12646484 49.28076172 C-17.14794707 45.37815709 -17.19462879 41.47652926 -17.24609375 37.57421875 C-17.24732239 36.36870361 -17.24855103 35.16318848 -17.24981689 33.92114258 C-17.36986272 26.9773682 -17.94468713 22.15326897 -21.85546875 16.32421875 C-27.08966583 13.19266707 -33.05751091 13.68302008 -38.85546875 15.01171875 C-41.55082805 16.78054829 -41.94946209 18.25773468 -42.85546875 21.32421875 C-43.19368652 22.11521973 -43.5319043 22.9062207 -43.88037109 23.72119141 C-45.31835855 29.03461626 -45.21447248 34.24015634 -45.26953125 39.72265625 C-45.2888974 40.91275299 -45.30826355 42.10284973 -45.32821655 43.32901001 C-45.38785378 47.11900736 -45.43433491 50.90903534 -45.48046875 54.69921875 C-45.51866306 57.27345053 -45.55771564 59.84766972 -45.59765625 62.421875 C-45.69354256 68.72255371 -45.77763266 75.02329224 -45.85546875 81.32421875 C-53.44546875 81.32421875 -61.03546875 81.32421875 -68.85546875 81.32421875 C-68.90445313 77.59109375 -68.9534375 73.85796875 -69.00390625 70.01171875 C-69.0579746 66.3809827 -69.11525916 62.75031057 -69.17285156 59.11962891 C-69.21104485 56.60372718 -69.24591427 54.08777265 -69.27734375 51.57177734 C-69.32320381 47.94739966 -69.38116433 44.32338249 -69.44140625 40.69921875 C-69.45295746 39.58119873 -69.46450867 38.46317871 -69.47640991 37.3112793 C-69.48919575 26.94712378 -69.48919575 26.94712378 -73.85546875 17.88671875 C-78.19900563 14.49333056 -82.52108035 14.77436641 -87.85546875 15.32421875 C-92.39735159 17.17461546 -94.11667678 19.34373051 -95.98144531 23.71630859 C-98.27455115 29.71419244 -98.45764165 35.31083486 -98.46484375 41.67578125 C-98.48138 42.81582611 -98.49791626 43.95587097 -98.51495361 45.13046265 C-98.5631586 48.73677099 -98.58474416 52.34265848 -98.60546875 55.94921875 C-98.6336513 58.40887503 -98.66358189 60.86851194 -98.6953125 63.328125 C-98.77216944 69.32701144 -98.81294842 75.3245999 -98.85546875 81.32421875 C-106.44546875 81.32421875 -114.03546875 81.32421875 -121.85546875 81.32421875 C-121.85546875 52.61421875 -121.85546875 23.90421875 -121.85546875 -5.67578125 C-114.26546875 -5.67578125 -106.67546875 -5.67578125 -98.85546875 -5.67578125 C-98.52546875 -3.03578125 -98.19546875 -0.39578125 -97.85546875 2.32421875 C-97.43136719 1.92589844 -97.00726562 1.52757812 -96.5703125 1.1171875 C-89.00697413 -5.71475112 -83.47364195 -7.22292264 -73.296875 -6.953125 C-65.45207099 -6.32091037 -60.68644802 -4.22057494 -55.265625 1.5078125 C-53.82563601 3.36264597 -52.82584023 5.19127662 -51.85546875 7.32421875 C-51.45457031 6.87691406 -51.05367187 6.42960938 -50.640625 5.96875 C-46.19115664 1.23677571 -41.68465876 -1.84984313 -35.85546875 -4.67578125 C-34.61796875 -5.29453125 -34.61796875 -5.29453125 -33.35546875 -5.92578125 C-21.92754251 -9.35415912 -9.10950842 -8.22732444 0 0 Z " fill="#1C2F3E" transform="translate(687.85546875,740.67578125)"/>
<path d="M0 0 C8.2754491 7.77295504 14.51909523 18.28107882 15.1796875 29.796875 C15.20354533 31.36310009 15.20436143 32.92982464 15.18359375 34.49609375 C15.17384521 35.32568604 15.16409668 36.15527832 15.15405273 37.01000977 C14.79255403 49.60609526 10.39818964 58.97203903 1.74609375 68.18359375 C-7.33704284 76.2516338 -18.80019885 80.05877031 -30.87890625 80.62109375 C-44.29239207 79.80350985 -57.33713872 75.47552263 -66.66015625 65.3984375 C-75.68385604 52.85814881 -79.00978511 39.29135952 -76.62890625 24.05859375 C-73.86509724 12.02328358 -66.08823666 2.97050981 -56.234375 -3.984375 C-38.63484877 -14.80243241 -15.99816467 -12.89280169 0 0 Z " fill="#1C2E3D" transform="translate(314.25390625,743.81640625)"/>
<path d="M0 0 C1.00546875 0.00580078 2.0109375 0.01160156 3.046875 0.01757812 C10.45453477 0.14203477 10.45453477 0.14203477 12.75 2.4375 C13.00447559 5.33016872 13.00447559 5.33016872 13.01069641 9.11167908 C13.01452196 9.80547513 13.01834751 10.49927118 13.02228898 11.21409136 C13.03264814 13.55027427 13.0286214 15.88621273 13.0246582 18.22241211 C13.02900308 19.89269744 13.03418547 21.56298077 13.04014587 23.23326111 C13.05357144 27.77867603 13.0541106 32.32400799 13.05158257 36.86943889 C13.05051525 40.6593889 13.05539011 44.44932197 13.060188 48.23926836 C13.07129553 57.17799836 13.07171362 66.11668635 13.06567383 75.05541992 C13.05963208 84.2872025 13.07194728 93.51883273 13.0932439 102.75058931 C13.1108378 110.66739372 13.11686475 118.58414955 13.11360615 126.50097281 C13.11178958 131.23340179 13.11446655 135.96572212 13.12832069 140.69813347 C13.14085851 145.14767573 13.13899353 149.59697989 13.12590981 154.04651833 C13.12353559 155.68200637 13.12630877 157.31751096 13.13453293 158.95298004 C13.14493131 161.18104547 13.13695646 163.4083017 13.1242218 165.63633728 C13.12438954 166.88461272 13.12455729 168.13288816 13.12473011 169.41899014 C12.75 172.4375 12.75 172.4375 11.34996319 174.3383112 C9.30133585 175.74573622 8.02232676 175.82455237 5.546875 175.8359375 C4.73089844 175.83980469 3.91492188 175.84367188 3.07421875 175.84765625 C1.79998047 175.83025391 1.79998047 175.83025391 0.5 175.8125 C-0.33402344 175.82410156 -1.16804688 175.83570313 -2.02734375 175.84765625 C-7.49276086 175.82191645 -11.47494031 175.17140723 -16.25 172.4375 C-18.48913704 169.14013289 -18.49920476 166.26830423 -18.49723816 162.34938049 C-18.50143265 161.10054581 -18.50562714 159.85171112 -18.50994873 158.56503296 C-18.50446521 157.18340987 -18.49878222 155.80178755 -18.49291992 154.42016602 C-18.49399311 152.96285415 -18.49593234 151.50554271 -18.49867249 150.04823303 C-18.50352194 146.08900351 -18.49586074 142.12988665 -18.48571944 138.17067075 C-18.47692489 134.01807363 -18.47869677 129.8654799 -18.4790802 125.71287537 C-18.47814318 118.7295443 -18.4694597 111.74625664 -18.45581055 104.76293945 C-18.44014002 96.71628805 -18.43481056 88.66968436 -18.4355461 80.6230188 C-18.43622503 72.03282899 -18.42925827 63.44265732 -18.4200995 54.85247302 C-18.41797947 52.391354 -18.41725982 49.93023796 -18.41686058 47.46911812 C-18.41584597 43.57770901 -18.4096595 39.686339 -18.39969444 35.79494286 C-18.39680565 34.37651433 -18.39553659 32.95808131 -18.39612198 31.53964996 C-18.40267561 5.96153591 -18.40267561 5.96153591 -14.890625 2.15234375 C-10.3976138 -0.67256323 -5.11458406 -0.16982017 0 0 Z " fill="#1F313F" transform="translate(282.25,341.5625)"/>
<path d="M0 0 C0.99837891 -0.03287109 1.99675781 -0.06574219 3.02539062 -0.09960938 C10.41548756 -0.15376731 10.41548756 -0.15376731 14.32421875 2.83984375 C17.18682441 6.83068812 17.31835475 8.88829598 17.34140015 13.79450989 C17.3457824 14.45422639 17.35016465 15.11394289 17.3546797 15.79365081 C17.36808386 18.01453632 17.37425014 20.23538213 17.38037109 22.45629883 C17.38827075 24.04452189 17.39653961 25.63274316 17.40515137 27.22096252 C17.43138578 32.44546796 17.44667971 37.66998147 17.4609375 42.89453125 C17.46629646 44.69170322 17.47167397 46.48887513 17.47706985 48.28604698 C17.49870003 55.76043535 17.51743769 63.23482153 17.52869225 70.70923328 C17.54493765 81.42837675 17.57812802 92.14715806 17.63509309 102.86616498 C17.67376435 110.39912991 17.69332155 117.93199786 17.69861281 125.46505946 C17.70226996 129.96628435 17.71432947 134.46712312 17.74671555 138.96824074 C17.77674714 143.20284434 17.78312584 147.4368272 17.77133179 151.67151451 C17.77111064 153.22555731 17.77944967 154.77962851 17.79698563 156.33357239 C17.81963606 158.45631058 17.81140545 160.57678989 17.79550171 162.69953918 C17.79881186 163.88697629 17.802122 165.07441339 17.80553246 166.29783344 C17.00590905 170.36000013 15.32955974 171.83667428 12.1875 174.4375 C8.54370011 176.25939994 4.26167515 175.66510405 0.25 175.6875 C-0.66974609 175.708125 -1.58949219 175.72875 -2.53710938 175.75 C-3.42076172 175.75515625 -4.30441406 175.7603125 -5.21484375 175.765625 C-6.02429443 175.7749707 -6.83374512 175.78431641 -7.66772461 175.79394531 C-10.46101559 175.32972166 -11.14334249 174.72352313 -12.8125 172.4375 C-13.18723011 169.41899014 -13.18723011 169.41899014 -13.1867218 165.63633728 C-13.19069621 164.94098124 -13.19467061 164.24562519 -13.19876546 163.52919775 C-13.20840824 161.19365645 -13.19655892 158.8587179 -13.18481445 156.52319336 C-13.18724175 154.85113804 -13.19096047 153.17908416 -13.19587708 151.5070343 C-13.2052975 146.96169085 -13.1958514 142.4165623 -13.18254495 137.87123561 C-13.17124713 133.12090816 -13.17533661 128.37059154 -13.17729187 123.62025452 C-13.17817529 115.64320352 -13.16708374 107.66623743 -13.14868164 99.68920898 C-13.12750604 90.45684206 -13.12400539 81.22459948 -13.1302436 71.99221319 C-13.13593104 63.12191873 -13.13029939 54.25166821 -13.11907005 45.38138008 C-13.11441658 41.60110222 -13.11355343 37.82085117 -13.1156559 34.04057121 C-13.11753455 29.59268893 -13.10946769 25.14493388 -13.0935955 20.69708061 C-13.08934007 19.06117784 -13.08851051 17.42526219 -13.09128571 15.78935623 C-13.09449007 13.56332254 -13.0854704 11.33767322 -13.07319641 9.11167908 C-13.07114354 7.86378066 -13.06909067 6.61588224 -13.06697559 5.33016872 C-12.4462343 -1.72590653 -5.50354976 0.03160941 0 0 Z " fill="#1C2F3D" transform="translate(741.8125,341.5625)"/>
<path d="M0 0 C8.51439765 5.24639304 12.91452431 12.41217665 15.3125 22 C15.81588509 27.02971385 15.78231287 32.02641313 15.703125 37.07421875 C15.6956452 38.49338475 15.68996051 39.91256122 15.68597412 41.33174133 C15.67085406 45.02922135 15.63169465 48.72605177 15.5871582 52.42327881 C15.54590708 56.211133 15.52790008 59.9990943 15.5078125 63.78710938 C15.46518295 71.19173374 15.39494978 78.59569233 15.3125 86 C7.3925 86 -0.5275 86 -8.6875 86 C-8.73648438 82.266875 -8.78546875 78.53375 -8.8359375 74.6875 C-8.89000585 71.05676395 -8.94729041 67.42609182 -9.00488281 63.79541016 C-9.0430761 61.27950843 -9.07794552 58.7635539 -9.109375 56.24755859 C-9.15523506 52.62318091 -9.21319558 48.99916374 -9.2734375 45.375 C-9.28498871 44.25697998 -9.29653992 43.13895996 -9.30844116 41.98706055 C-9.51321578 29.96240619 -9.51321578 29.96240619 -15.6875 20 C-20.94164036 18.24861988 -26.43574575 18.01709349 -31.5 20.5 C-36.04499512 23.46321027 -38.03181368 28.15755292 -39.22007751 33.3087616 C-39.68248217 35.97110926 -39.84497873 38.4577286 -39.89282227 41.1574707 C-39.91276749 42.15813065 -39.93271271 43.15879059 -39.95326233 44.18977356 C-39.97833107 45.79159737 -39.97833107 45.79159737 -40.00390625 47.42578125 C-40.02468735 48.52850876 -40.04546844 49.63123627 -40.06687927 50.76737976 C-40.13214932 54.28235778 -40.19115495 57.79740912 -40.25 61.3125 C-40.29320665 63.69857523 -40.33682163 66.08464309 -40.38085938 68.47070312 C-40.48857427 74.31372808 -40.58781582 80.15681044 -40.6875 86 C-48.6075 86 -56.5275 86 -64.6875 86 C-64.6875 57.29 -64.6875 28.58 -64.6875 -1 C-56.7675 -1 -48.8475 -1 -40.6875 -1 C-40.3575 1.97 -40.0275 4.94 -39.6875 8 C-38.718125 7.0925 -37.74875 6.185 -36.75 5.25 C-26.7616581 -3.08019819 -12.16216202 -5.50281871 0 0 Z " fill="#1C2F3E" transform="translate(407.6875,736)"/>
<path d="M0 0 C1.85546875 -0.0703125 1.85546875 -0.0703125 4.66796875 0.1171875 C7.20734018 2.65655893 6.91901982 3.53251778 6.92193604 7.05175781 C6.92757568 8.09497192 6.93321533 9.13818604 6.93902588 10.2130127 C6.93497742 11.36217163 6.93092896 12.51133057 6.92675781 13.6953125 C6.93026245 14.90183472 6.93376709 16.10835693 6.93737793 17.35144043 C6.94468686 20.6654877 6.94295302 23.97928621 6.93661976 27.2933197 C6.93156575 30.75707338 6.93624954 34.22081623 6.93939209 37.68457031 C6.94303349 43.5019726 6.9382281 49.31932416 6.92871094 55.13671875 C6.91782602 61.86800324 6.92135148 68.59916659 6.93236375 75.33044815 C6.94143169 81.10373092 6.94272433 86.87697716 6.93748641 92.65026474 C6.93436398 96.10105119 6.9339648 99.55178066 6.94055939 103.00256348 C6.94739469 106.84811128 6.93792812 110.69352274 6.92675781 114.5390625 C6.93080627 115.68822144 6.93485474 116.83738037 6.93902588 118.0213623 C6.93056641 119.58618347 6.93056641 119.58618347 6.92193604 121.18261719 C6.92118198 122.0925946 6.92042793 123.00257202 6.91965103 123.94012451 C6.66796875 126.1171875 6.66796875 126.1171875 4.66796875 128.1171875 C1.587042 128.61616325 -1.52774907 128.53383171 -4.64453125 128.5546875 C-5.49982422 128.58755859 -6.35511719 128.62042969 -7.23632812 128.65429688 C-11.63212871 128.69175141 -13.6956391 128.59010277 -17.3125 125.90234375 C-21.19399443 120.54933498 -21.61290998 116.02996713 -21.52734375 109.53515625 C-21.52451385 108.72097733 -21.52168396 107.9067984 -21.51876831 107.06794739 C-21.50761709 104.4800415 -21.48252208 101.89248792 -21.45703125 99.3046875 C-21.4469949 97.54492689 -21.43787019 95.78516083 -21.4296875 94.02539062 C-21.40769435 89.72252152 -21.37319961 85.41991414 -21.33203125 81.1171875 C-22.46874268 81.14002808 -22.46874268 81.14002808 -23.62841797 81.16333008 C-25.11752686 81.18109497 -25.11752686 81.18109497 -26.63671875 81.19921875 C-28.11374268 81.22205933 -28.11374268 81.22205933 -29.62060547 81.24536133 C-32.95557296 81.0877116 -34.84649954 80.35416604 -37.33203125 78.1171875 C-38.80636858 73.69417551 -38.51640097 69.37500422 -38.51953125 64.7421875 C-38.53177734 63.79601562 -38.54402344 62.84984375 -38.55664062 61.875 C-38.57563498 52.85901167 -38.57563498 52.85901167 -36.33203125 49.1171875 C-32.70007629 46.69588419 -30.94853777 46.90695965 -26.64453125 46.9921875 C-25.46503906 47.01023437 -24.28554687 47.02828125 -23.0703125 47.046875 C-22.16667969 47.07007813 -21.26304687 47.09328125 -20.33203125 47.1171875 C-20.35821533 45.90135986 -20.38439941 44.68553223 -20.41137695 43.43286133 C-20.50200885 38.91368069 -20.55932773 34.39458006 -20.60668945 29.87475586 C-20.63180406 27.92019127 -20.66590256 25.96572033 -20.70922852 24.01147461 C-20.77001559 21.19882082 -20.79827108 18.38741048 -20.8203125 15.57421875 C-20.84611893 14.70320023 -20.87192535 13.8321817 -20.89851379 12.93476868 C-20.90055195 8.50677348 -20.77277437 6.69164955 -17.99438477 3.0703125 C-14.78787102 0.71798697 -12.90356745 0.43123914 -8.95703125 0.3046875 C-7.81878906 0.26085937 -6.68054688 0.21703125 -5.5078125 0.171875 C-3.67125359 0.14024914 -1.83451641 0.09218675 0 0 Z " fill="#1E303F" transform="translate(248.33203125,364.8828125)"/>
<path d="M0 0 C0.75152344 -0.02900391 1.50304687 -0.05800781 2.27734375 -0.08789062 C7.56358573 -0.14785672 10.61125687 0.73186011 14.75 4.3125 C17.56773305 8.19182266 17.00213721 12.65191964 16.9453125 17.234375 C16.9424826 18.09436096 16.93965271 18.95434692 16.93673706 19.84039307 C16.9255615 22.58123821 16.90046179 25.32175398 16.875 28.0625 C16.8649668 29.92317236 16.85584155 31.78384985 16.84765625 33.64453125 C16.82563076 38.20064732 16.79111897 42.75651786 16.75 47.3125 C17.71421875 47.25449219 18.6784375 47.19648438 19.671875 47.13671875 C21.56679688 47.06904297 21.56679688 47.06904297 23.5 47 C24.75296875 46.94199219 26.0059375 46.88398438 27.296875 46.82421875 C30.75 47.3125 30.75 47.3125 33.17431641 49.49584961 C34.88599856 52.55560744 35.24222944 54.218921 35.2109375 57.69140625 C35.20707031 58.69494141 35.20320312 59.69847656 35.19921875 60.73242188 C35.16248047 62.28799805 35.16248047 62.28799805 35.125 63.875 C35.12371094 64.91591797 35.12242187 65.95683594 35.12109375 67.02929688 C35.02019824 75.74554765 35.02019824 75.74554765 32.75 79.3125 C29.74686252 80.81406874 26.95932478 80.40531204 23.625 80.375 C22.34367188 80.36597656 21.06234375 80.35695313 19.7421875 80.34765625 C18.75476563 80.33605469 17.76734375 80.32445312 16.75 80.3125 C16.77618408 81.52309082 16.80236816 82.73368164 16.8293457 83.98095703 C16.92008038 88.48711551 16.97733371 92.99319379 17.0246582 97.5 C17.04974946 99.44772943 17.08383061 101.3953652 17.12719727 103.34277344 C17.18808749 106.1480219 17.21626331 108.95202208 17.23828125 111.7578125 C17.26408768 112.62366974 17.2898941 113.48952698 17.31648254 114.38162231 C17.31845583 118.66828445 17.09566129 121.44581839 14.34448242 124.84716797 C11.09813007 127.93192059 9.75942059 128.43905032 5.43359375 128.4453125 C4.16418945 128.44724609 4.16418945 128.44724609 2.86914062 128.44921875 C1.98419922 128.44535156 1.09925781 128.44148437 0.1875 128.4375 C-0.70130859 128.44136719 -1.59011719 128.44523438 -2.50585938 128.44921875 C-3.35083984 128.44792969 -4.19582031 128.44664062 -5.06640625 128.4453125 C-6.23345093 128.44362061 -6.23345093 128.44362061 -7.42407227 128.44189453 C-9.25 128.3125 -9.25 128.3125 -10.25 127.3125 C-10.34605864 125.68026544 -10.37187821 124.0438561 -10.37025452 122.40879822 C-10.37162918 121.34724014 -10.37300385 120.28568207 -10.37442017 119.19195557 C-10.37082489 118.01735779 -10.36722961 116.84276001 -10.36352539 115.63256836 C-10.36367142 114.40347244 -10.36381744 113.17437653 -10.3639679 111.90803528 C-10.36338892 108.52801328 -10.35835964 105.14805171 -10.35139394 101.76804042 C-10.34515988 98.23928806 -10.34455656 94.71053497 -10.34336853 91.18177795 C-10.34025537 84.49526881 -10.33204218 77.80877594 -10.32201904 71.12227398 C-10.31085744 63.51175697 -10.30534733 55.9012392 -10.30032361 48.29071605 C-10.28985956 32.63130126 -10.27226041 16.97190273 -10.25 1.3125 C-7.02434056 -0.30032972 -3.54059192 0.04462931 0 0 Z " fill="#1B2E3C" transform="translate(779.25,364.6875)"/>
<path d="M0 0 C7.92 0 15.84 0 24 0 C24 7.59 24 15.18 24 23 C29.61 23 35.22 23 41 23 C41 28.94 41 34.88 41 41 C35.39 41 29.78 41 24 41 C24.09367004 47.03257915 24.19979496 53.06476339 24.31738281 59.09692383 C24.35562625 61.14829534 24.39048719 63.19973284 24.421875 65.2512207 C24.46762602 68.20287638 24.52560422 71.15407953 24.5859375 74.10546875 C24.59748871 75.02023483 24.60903992 75.93500092 24.62094116 76.87748718 C24.74996038 83.1734119 24.74996038 83.1734119 27 89 C29.70183055 90.35091528 32.11808206 90.33858058 35.125 90.5625 C37.06375 90.706875 39.0025 90.85125 41 91 C41 96.94 41 102.88 41 109 C31.15716738 111.62475537 20.17919186 113.01871271 10.94140625 107.84765625 C4.30242917 103.45009529 1.63324174 97.63837736 0 90 C-0.08449436 88.38164515 -0.11779 86.7602019 -0.11352539 85.13964844 C-0.11344986 84.17895447 -0.11337433 83.2182605 -0.11329651 82.22845459 C-0.10813522 81.19915833 -0.10297394 80.16986206 -0.09765625 79.109375 C-0.0962413 78.04962463 -0.09482635 76.98987427 -0.09336853 75.89801025 C-0.08777382 72.51531138 -0.07522225 69.13267885 -0.0625 65.75 C-0.05748432 63.45573012 -0.05292153 61.16145921 -0.04882812 58.8671875 C-0.03780611 53.24476613 -0.02054507 47.62239431 0 42 C-3.3 42 -6.6 42 -10 42 C-10 35.73 -10 29.46 -10 23 C-6.7 23 -3.4 23 0 23 C0 15.41 0 7.82 0 0 Z " fill="#1E303E" transform="translate(859,712)"/>
<path d="M0 0 C8.58 0 17.16 0 26 0 C26 38.28 26 76.56 26 116 C17.42 116 8.84 116 0 116 C0 77.72 0 39.44 0 0 Z " fill="#1D3140" transform="translate(134,706)"/>
<path d="M0 0 C0 7.59 0 15.18 0 23 C-3.63 23.66 -7.26 24.32 -11 25 C-16.87205182 27.17483401 -20.13206523 30.59796154 -23.08056641 35.96801758 C-27.36851378 45.89632807 -26.6753803 56.57501756 -26.75 67.1875 C-26.77820033 69.20900951 -26.80813333 71.23049563 -26.83984375 73.25195312 C-26.91643954 78.16819368 -26.95740911 83.08288151 -27 88 C-34.59 88 -42.18 88 -50 88 C-50 59.29 -50 30.58 -50 1 C-42.74 1 -35.48 1 -28 1 C-27.67 5.29 -27.34 9.58 -27 14 C-26.484375 13.13375 -25.96875 12.2675 -25.4375 11.375 C-22.11008862 6.43074787 -18.15848243 2.87938173 -12.625 0.625 C-9 0 -9 0 0 0 Z " fill="#1C2E3C" transform="translate(230,734)"/>
<path d="M0 0 C7.92 0.33 15.84 0.66 24 1 C24 29.38 24 57.76 24 87 C16.08 87 8.16 87 0 87 C0 58.29 0 29.58 0 0 Z " fill="#1A2D3B" transform="translate(814,735)"/>
<path d="M0 0 C5.10814445 2.9771394 8.97042227 7.52676493 11.1171875 13.06640625 C12.87668184 21.06533823 12.85603824 30.16854887 8.96484375 37.5078125 C5.8381124 41.86518155 1.63974417 45.41694618 -3.375 47.375 C-9.41617968 48.00095356 -15.27415078 48.31287912 -20.875 45.8125 C-21.7 45.008125 -22.525 44.20375 -23.375 43.375 C-23.89449219 42.87742187 -24.41398437 42.37984375 -24.94921875 41.8671875 C-30.14919248 36.45317127 -32.43761022 30.34632222 -32.75 22.875 C-32.40198343 14.87061883 -29.78918273 8.83212444 -24.25 3.0390625 C-17.66016373 -2.80941719 -7.94093453 -3.5876812 0 0 Z " fill="#F8ECD9" transform="translate(293.375,755.625)"/>
<path d="M0 0 C6.04219162 4.49098715 8.88926025 9.53520098 10.5 16.8125 C11.4606685 24.08117247 10.23741864 30.47418769 6.5 36.8125 C2.60360198 41.2813546 -1.78731522 44.46344417 -7.78515625 45.02734375 C-14.7822732 45.29118677 -19.81862055 44.1282368 -25.25 39.4375 C-30.29426028 33.55252968 -32.11963104 27.99655852 -32.8125 20.375 C-32.11881502 12.46699127 -29.5506589 6.10324203 -23.5 0.8125 C-16.55275104 -3.49479436 -7.17822982 -4.25326888 0 0 Z " fill="#F8EDDA" transform="translate(765.5,757.1875)"/>
<path d="M0 0 C2.97935569 4.46903353 4.72943833 9.41122669 6.74072266 14.37744141 C7.49253989 16.23160159 8.25209284 18.08261898 9.01171875 19.93359375 C9.49253906 21.11566406 9.97335937 22.29773438 10.46875 23.515625 C11.12520508 25.12872559 11.12520508 25.12872559 11.79492188 26.77441406 C13.04503964 30.12055585 14.01868555 33.56539941 15 37 C5.43 37 -4.14 37 -14 37 C-10.62083219 25.73610728 -10.62083219 25.73610728 -8.5546875 20.37109375 C-8.11769531 19.23478516 -7.68070312 18.09847656 -7.23046875 16.92773438 C-6.78316406 15.77595703 -6.33585937 14.62417969 -5.875 13.4375 C-5.41996094 12.25091797 -4.96492188 11.06433594 -4.49609375 9.84179688 C-1.13194444 1.13194444 -1.13194444 1.13194444 0 0 Z " fill="#F7EDDB" transform="translate(495,738)"/>
<path d="M0 0 C23.00675676 0 23.00675676 0 34.25 0.5 C35.39984375 0.54769531 36.5496875 0.59539062 37.734375 0.64453125 C40.48976214 0.75933905 43.24493338 0.87778374 46 1 C46 1.33 46 1.66 46 2 C41.83334907 2.0297226 37.6667263 2.04703495 33.5 2.0625 C32.34628906 2.07087891 31.19257812 2.07925781 30.00390625 2.08789062 C20.91661973 2.11299363 12.1208628 1.57005393 3 1 C3 88.78 3 176.56 3 267 C2.67 267 2.34 267 2 267 C1.67 216.84 1.34 166.68 1 115 C0.67 115 0.34 115 0 115 C0 77.05 0 39.1 0 0 Z " fill="#EDE3D3" transform="translate(542,338)"/>
<path d="M0 0 C8.25 0 16.5 0 25 0 C25 6.27 25 12.54 25 19 C16.75 19 8.5 19 0 19 C0 12.73 0 6.46 0 0 Z " fill="#1D2C3A" transform="translate(814,706)"/>
<path d="M0 0 C8.58 0 17.16 0 26 0 C26 38.28 26 76.56 26 116 C17.42 116 8.84 116 0 116 C0 77.72 0 39.44 0 0 Z M1 1 C1 38.29 1 75.58 1 114 C8.59 114 16.18 114 24 114 C24 76.71 24 39.42 24 1 C16.41 1 8.82 1 1 1 Z " fill="#081326" transform="translate(134,706)"/>
<path d="M0 0 C0.99 0.495 0.99 0.495 2 1 C2 30.7 2 60.4 2 91 C12.23 91 22.46 91 33 91 C32.835 88.40125 32.67 85.8025 32.5 83.125 C31.49797986 64.78285674 31.91727262 46.36165998 32 28 C32.33 28 32.66 28 33 28 C34.12941478 41.67012072 34.11649348 55.29176951 34.0625 69 C34.05747197 71.23958233 34.05291138 73.47916575 34.04882812 75.71875 C34.03793269 81.14585779 34.02129913 86.57292358 34 92 C31.33361579 92.1728212 28.66706147 92.33822742 26 92.5 C24.91332031 92.57154297 24.91332031 92.57154297 23.8046875 92.64453125 C15.83393351 93.11737259 8.03925187 93 0 93 C0 62.31 0 31.62 0 0 Z " fill="#0E1C2D" transform="translate(304,236)"/>
<path d="M0 0 C41.25 0 82.5 0 125 0 C125 0.99 125 1.98 125 3 C84.41 3 43.82 3 2 3 C2 11.25 2 19.5 2 28 C1.67 28 1.34 28 1 28 C0.67 18.76 0.34 9.52 0 0 Z " fill="#D1CABD" transform="translate(339,445)"/>
<path d="M0 0 C7.92 0 15.84 0 24 0 C24 3.3 24 6.6 24 10 C23.67 10 23.34 10 23 10 C23 7.36 23 4.72 23 2 C16.07 2 9.14 2 2 2 C2 29.72 2 57.44 2 86 C8.93 86 15.86 86 23 86 C23 68.84 23 51.68 23 34 C23.33 34 23.66 34 24 34 C24 51.49 24 68.98 24 87 C16.08 87 8.16 87 0 87 C0 58.29 0 29.58 0 0 Z " fill="#19212F" transform="translate(343,735)"/>
<path d="M0 0 C0.33 0 0.66 0 1 0 C1.14543189 5.77588954 1.28767561 11.55184671 1.42724609 17.32788086 C1.47491999 19.2836304 1.52339328 21.23936066 1.57275391 23.19506836 C1.6444767 26.04275604 1.71310313 28.89050599 1.78125 31.73828125 C1.80312378 32.58078934 1.82499756 33.42329742 1.84753418 34.29133606 C2.06281853 43.53313144 2 52.7460697 2 62 C62.885 61.505 62.885 61.505 125 61 C124.505 61.99 124.505 61.99 124 63 C112.26206509 63.13235912 100.52411096 63.26285513 88.78613091 63.39115143 C83.33218263 63.45081789 77.87824215 63.51106026 72.42431641 63.57275391 C67.13336841 63.63258053 61.84240403 63.69071826 56.55142593 63.74781799 C54.56105038 63.76956924 52.57068071 63.79186872 50.58031845 63.81480408 C33.7182408 64.00847706 16.8653157 64 0 64 C0 42.88 0 21.76 0 0 Z " fill="#FDFBF2" transform="translate(339,348)"/>
<path d="M0 0 C1 3 1 3 0.08837891 5.41259766 C-1.51873533 10.70980193 -1.35874985 15.89065705 -1.4140625 21.3984375 C-1.43342865 22.58853424 -1.4527948 23.77863098 -1.4727478 25.00479126 C-1.53238503 28.79478861 -1.57886616 32.58481659 -1.625 36.375 C-1.66319431 38.94923178 -1.70224689 41.52345097 -1.7421875 44.09765625 C-1.83807381 50.39833496 -1.92216391 56.69907349 -2 63 C-9.59 63 -17.18 63 -25 63 C-25 44.52 -25 26.04 -25 7 C-24.67 7 -24.34 7 -24 7 C-24 24.82 -24 42.64 -24 61 C-17.4 61 -10.8 61 -4 61 C-4.02094727 59.54295654 -4.04189453 58.08591309 -4.06347656 56.5847168 C-4.13631847 51.1372271 -4.18195993 45.68977977 -4.21972656 40.24194336 C-4.23974175 37.89193462 -4.26696244 35.54197504 -4.30175781 33.19213867 C-4.35072124 29.79854133 -4.37307059 26.40560704 -4.390625 23.01171875 C-4.41127014 21.97480392 -4.43191528 20.9378891 -4.45318604 19.86955261 C-4.45539903 12.54323281 -2.91299688 6.71020424 0 0 Z " fill="#0A1525" transform="translate(644,759)"/>
<path d="M0 0 C0.66 0.33 1.32 0.66 2 1 C2.07594813 8.20818345 2.12855678 15.41626405 2.16479492 22.62475586 C2.17989881 25.07792008 2.20038321 27.53105724 2.22631836 29.98413086 C2.26263057 33.50641555 2.27971036 37.02834381 2.29296875 40.55078125 C2.30845261 41.65086014 2.32393646 42.75093903 2.33988953 43.88435364 C2.34011612 44.90518539 2.34034271 45.92601715 2.34057617 46.9777832 C2.34723801 47.87713089 2.35389984 48.77647858 2.36076355 49.70307922 C1.93231328 52.43094995 1.11918912 53.3001483 -1 55 C-1.0252899 47.48861406 -1.04284141 39.97723903 -1.05493164 32.46582031 C-1.05997017 29.90884999 -1.06680107 27.35188257 -1.07543945 24.79492188 C-1.08752602 21.12629483 -1.09323301 17.45770577 -1.09765625 13.7890625 C-1.10539818 12.0655809 -1.10539818 12.0655809 -1.11329651 10.30728149 C-1.11337204 9.2463327 -1.11344757 8.18538391 -1.11352539 7.09228516 C-1.115746 6.15518707 -1.11796661 5.21808899 -1.12025452 4.25259399 C-1 2 -1 2 0 0 Z " fill="#273441" transform="translate(718,348)"/>
<path d="M0 0 C7.92 0 15.84 0 24 0 C24 7.26 24 14.52 24 22 C23.67 22 23.34 22 23 22 C23 15.07 23 8.14 23 1 C16.07 1 9.14 1 2 1 C2.01160156 2.64871094 2.02320313 4.29742188 2.03515625 5.99609375 C2.04453238 8.14322804 2.05363277 10.29036355 2.0625 12.4375 C2.07087891 13.52611328 2.07925781 14.61472656 2.08789062 15.73632812 C2.09111328 16.77080078 2.09433594 17.80527344 2.09765625 18.87109375 C2.10289307 19.82943115 2.10812988 20.78776855 2.11352539 21.77514648 C2 24 2 24 1 25 C-2.33618231 25.14257189 -5.65975606 25.04228157 -9 25 C-9 29.95 -9 34.9 -9 40 C-5.7 40 -2.4 40 1 40 C1 40.33 1 40.66 1 41 C-2.63 41 -6.26 41 -10 41 C-10 35.06 -10 29.12 -10 23 C-6.7 23 -3.4 23 0 23 C0 15.41 0 7.82 0 0 Z " fill="#1A202B" transform="translate(859,712)"/>
<path d="M0 0 C0.33 0 0.66 0 1 0 C1 7.92 1 15.84 1 24 C0.01 23.01 0.01 23.01 -1 22 C-3.77126729 21.81189781 -6.44180522 21.74823316 -9.21337891 21.77294922 C-10.0622316 21.77265717 -10.91108429 21.77236511 -11.78565979 21.77206421 C-14.59939699 21.77346072 -17.41287139 21.78903697 -20.2265625 21.8046875 C-22.17426407 21.80841649 -24.12196752 21.811264 -26.06967163 21.81326294 C-31.20224158 21.82090839 -36.33469879 21.84056468 -41.46722412 21.8626709 C-46.70209223 21.88310972 -51.93697851 21.89226045 -57.171875 21.90234375 C-67.44796627 21.92380973 -77.72397377 21.95795664 -88 22 C-88 21.67 -88 21.34 -88 21 C-59.62 21 -31.24 21 -2 21 C-2 16.71 -2 12.42 -2 8 C-1 3.1875 -1 3.1875 0 0 Z " fill="#E8DDCB" transform="translate(684,387)"/>
<path d="M0 0 C4.62 0 9.24 0 14 0 C12 2 12 2 9.6171875 2.1953125 C8.71226562 2.17210937 7.80734375 2.14890625 6.875 2.125 C5.50988281 2.09792969 5.50988281 2.09792969 4.1171875 2.0703125 C3.41851563 2.04710937 2.71984375 2.02390625 2 2 C2.01047363 3.14065918 2.02094727 4.28131836 2.03173828 5.45654297 C2.06787717 9.67949294 2.09087812 13.90242919 2.10986328 18.12548828 C2.11993484 19.95493873 2.13359276 21.78437303 2.15087891 23.61376953 C2.17507677 26.23994934 2.18647132 28.86591675 2.1953125 31.4921875 C2.20563507 32.31306854 2.21595764 33.13394958 2.22659302 33.97970581 C2.22699184 35.98789142 2.1224954 37.99555382 2 40 C1.34 40.66 0.68 41.32 0 42 C0 28.14 0 14.28 0 0 Z " fill="#ECE8DC" transform="translate(796,445)"/>
<path d="M0 0 C2.49336211 3.74004317 2.25481228 6.62561609 2.1953125 10.94921875 C2.1924826 11.72183548 2.18965271 12.49445221 2.18673706 13.29048157 C2.17554878 15.75631243 2.15044703 18.22177906 2.125 20.6875 C2.11496843 22.36002079 2.10584289 24.03254728 2.09765625 25.70507812 C2.07561392 29.80352559 2.04109363 33.90170106 2 38 C5.3 38 8.6 38 12 38 C12 38.66 12 39.32 12 40 C8.04 40 4.08 40 0 40 C0 26.8 0 13.6 0 0 Z " fill="#FBF7E8" transform="translate(796,372)"/>
<path d="M0 0 C0.66 0 1.32 0 2 0 C2 11.55 2 23.1 2 35 C2.66 35.33 3.32 35.66 4 36 C2.68 37.32 1.36 38.64 0 40 C0 26.8 0 13.6 0 0 Z " fill="#F9F3E6" transform="translate(736,705)"/>
<path d="M0 0 C3.80622809 2.94117625 3.47021905 4.64576667 5 10 C-4.24 10 -13.48 10 -23 10 C-23 9.34 -23 8.68 -23 8 C-10.625 7.505 -10.625 7.505 2 7 C1.34 4.69 0.68 2.38 0 0 Z " fill="#111E2D" transform="translate(551,812)"/>
<path d="M0 0 C1.125 3.75 1.125 3.75 0 6 C-9.24 6 -18.48 6 -28 6 C-27.67 5.01 -27.34 4.02 -27 3 C-14.13 3.495 -14.13 3.495 -1 4 C-0.67 2.68 -0.34 1.36 0 0 Z " fill="#111F30" transform="translate(463,816)"/>
<path d="M0 0 C8.25 0 16.5 0 25 0 C25.66 1.98 26.32 3.96 27 6 C27.99 6 28.98 6 30 6 C28.02 7.65 26.04 9.3 24 11 C24 7.7 24 4.4 24 1 C16.08 1 8.16 1 0 1 C0 0.67 0 0.34 0 0 Z " fill="#FDFCF5" transform="translate(343,734)"/>
<path d="M0 0 C1.65 1.65 3.3 3.3 5 5 C4.01 5.495 4.01 5.495 3 6 C2.34 7.98 1.68 9.96 1 12 C-7.25 12 -15.5 12 -24 12 C-24 11.67 -24 11.34 -24 11 C-16.08 11 -8.16 11 0 11 C0 7.37 0 3.74 0 0 Z " fill="#FCFAEF" transform="translate(736,811)"/>
<path d="M0 0 C0.33 0 0.66 0 1 0 C1 6.27 1 12.54 1 19 C9.25 19 17.5 19 26 19 C26 19.33 26 19.66 26 20 C17.42 20.33 8.84 20.66 0 21 C-1.20217503 18.59564994 -1.03897118 17.31618631 -0.87890625 14.6484375 C-0.83056641 13.79765625 -0.78222656 12.946875 -0.73242188 12.0703125 C-0.67634766 11.18085937 -0.62027344 10.29140625 -0.5625 9.375 C-0.51029297 8.4778125 -0.45808594 7.580625 -0.40429688 6.65625 C-0.2744565 4.43715988 -0.13948661 2.21850129 0 0 Z " fill="#DAD5C9" transform="translate(813,706)"/>
<path d="M0 0 C2.4294516 3.6441774 2.16179575 5.71241272 2 10 C4.97 10 7.94 10 11 10 C11.33 10.66 11.66 11.32 12 12 C8.04 12 4.08 12 0 12 C0 8.04 0 4.08 0 0 Z " fill="#393F49" transform="translate(684,317)"/>
<path d="M0 0 C3.375 -0.1875 3.375 -0.1875 7 0 C9.78637633 4.1795645 8.79562512 6.14668677 8 11 C7.67 11 7.34 11 7 11 C7 8.36 7 5.72 7 3 C1.39 3 -4.22 3 -10 3 C-10 2.67 -10 2.34 -10 2 C-6.7 1.67 -3.4 1.34 0 1 C0 0.67 0 0.34 0 0 Z " fill="#253643" transform="translate(246,365)"/>
<path d="M0 0 C0 0.66 0 1.32 0 2 C-2.56149628 2.50567729 -5.12399465 3.00470132 -7.6875 3.5 C-8.7693457 3.71462891 -8.7693457 3.71462891 -9.87304688 3.93359375 C-13.63841359 4.65571887 -17.14473813 5.1824976 -21 5 C-17.77038428 2.84692286 -15.38872346 2.22765131 -11.625 1.375 C-10.50351562 1.11460937 -9.38203125 0.85421875 -8.2265625 0.5859375 C-5.3847292 0.06986608 -2.87555316 -0.11846848 0 0 Z " fill="#F6F4E9" transform="translate(371,256)"/>
<path d="M0 0 C0 0.66 0 1.32 0 2 C-6.625 5 -6.625 5 -10 5 C-10 8.3 -10 11.6 -10 15 C-10.33 15 -10.66 15 -11 15 C-11.02696365 13.20841511 -11.04637917 11.41671527 -11.0625 9.625 C-11.07410156 8.62726563 -11.08570313 7.62953125 -11.09765625 6.6015625 C-11 4 -11 4 -10 2 C-8.22265625 1.3671875 -8.22265625 1.3671875 -6.0625 0.875 C-5.35222656 0.70742188 -4.64195312 0.53984375 -3.91015625 0.3671875 C-2 0 -2 0 0 0 Z " fill="#EBE4D6" transform="translate(350,260)"/>
<path d="M0 0 C0.99 0 1.98 0 3 0 C2.34 2.31 1.68 4.62 1 7 C0.34 7 -0.32 7 -1 7 C-1.66 8.32 -2.32 9.64 -3 11 C-2.44894091 7.0507432 -1.61064629 3.65079826 0 0 Z " fill="#182333" transform="translate(450,782)"/>
<path d="M0 0 C0.66 0 1.32 0 2 0 C1.61012211 2.82661469 1.26241942 3.78678422 -1 5.625 C-1.66 6.07875 -2.32 6.5325 -3 7 C-3.33 7.66 -3.66 8.32 -4 9 C-4.66 7.68 -5.32 6.36 -6 5 C-5.195625 4.54625 -4.39125 4.0925 -3.5625 3.625 C-0.91143428 2.25274335 -0.91143428 2.25274335 0 0 Z " fill="#18232F" transform="translate(346,523)"/>
<path d="M0 0 C0.66 0 1.32 0 2 0 C2.33 0.99 2.66 1.98 3 3 C0.36 4.98 -2.28 6.96 -5 9 C-3.43888122 5.87776243 -1.93312992 2.89969488 0 0 Z " fill="#152330" transform="translate(652,510)"/>
<path d="M0 0 C0.33 0 0.66 0 1 0 C1 2.97 1 5.94 1 9 C1.66 9 2.32 9 3 9 C2.34 10.98 1.68 12.96 1 15 C0.67 15 0.34 15 0 15 C0 10.05 0 5.1 0 0 Z " fill="#DFDACF" transform="translate(202,735)"/>
<path d="M0 0 C0.33 0 0.66 0 1 0 C1 1.65 1 3.3 1 5 C2.65 4.34 4.3 3.68 6 3 C4.35830472 5.02054804 2.69088222 7.02043058 1 9 C0.67 9 0.34 9 0 9 C0 6.03 0 3.06 0 0 Z " fill="#FAF6E8" transform="translate(367,736)"/>
<path d="M0 0 C0.66 0 1.32 0 2 0 C2.33 2.31 2.66 4.62 3 7 C2.01 7.66 1.02 8.32 0 9 C0 6.03 0 3.06 0 0 Z " fill="#EEEADF" transform="translate(589,735)"/>
<path d="M0 0 C0.66 0.33 1.32 0.66 2 1 C1.67 1.66 1.34 2.32 1 3 C0.34 3 -0.32 3 -1 3 C-1.33 4.65 -1.66 6.3 -2 8 C-2.66 7.01 -3.32 6.02 -4 5 C-1.125 1.125 -1.125 1.125 0 0 Z " fill="#EBE5D6" transform="translate(798,798)"/>
</svg>
